<svg width="79" height="47" viewBox="0 0 79 47" fill="none" xmlns="http://www.w3.org/2000/svg">
<path fill-rule="evenodd" clip-rule="evenodd" d="M31.6637 1.37032L43.6329 13.3394C44.3674 14.0739 44.3674 15.2648 43.6329 15.9993L31.6637 27.9684C30.9293 28.7029 29.7384 28.7029 29.0039 27.9684C28.2695 27.2339 28.2695 26.0431 29.0039 25.3086L39.0079 15.3046V14.0341L29.0039 4.03013C28.2695 3.29564 28.2695 2.10481 29.0039 1.37032C29.7384 0.635837 30.9293 0.635837 31.6637 1.37032ZM0.881348 14.6693C0.881348 13.6306 1.7234 12.7886 2.76211 12.7886H6.05719V16.5501H2.76211C1.7234 16.5501 0.881348 15.7081 0.881348 14.6693ZM19.2375 16.5501H12.6473V12.7886H19.2375V16.5501ZM32.4178 16.5501H25.8276V12.7886H32.4178V16.5501Z" fill="#80A8BA"/>
<path fill-rule="evenodd" clip-rule="evenodd" d="M47.2777 45.831L35.3085 33.8619C34.574 33.1274 34.574 31.9366 35.3085 31.2021L47.2777 19.233C48.0121 18.4985 49.203 18.4985 49.9375 19.233C50.6719 19.9675 50.6719 21.1583 49.9375 21.8928L41.179 30.6512H76.1793C77.218 30.6512 78.0601 31.4933 78.0601 32.532C78.0601 33.5707 77.218 34.4128 76.1793 34.4128H41.179L49.9375 43.1712C50.6719 43.9057 50.6719 45.0965 49.9375 45.831C49.203 46.5655 48.0121 46.5655 47.2777 45.831Z" fill="#80A8BA"/>
<path fill-rule="evenodd" clip-rule="evenodd" d="M66.731 21.2495C70.8859 21.2495 74.254 17.8813 74.254 13.7265C74.254 9.57159 70.8859 6.2034 66.731 6.2034C62.5761 6.2034 59.2079 9.57159 59.2079 13.7265C59.2079 17.8813 62.5761 21.2495 66.731 21.2495ZM66.731 23.1303C71.9246 23.1303 76.1348 18.9201 76.1348 13.7265C76.1348 8.53287 71.9246 4.32263 66.731 4.32263C61.5374 4.32263 57.3271 8.53287 57.3271 13.7265C57.3271 18.9201 61.5374 23.1303 66.731 23.1303Z" fill="#80A8BA"/>
<path d="M21.5938 32.5344C21.5938 37.728 17.3836 41.9383 12.19 41.9383C6.99637 41.9383 2.78613 37.728 2.78613 32.5344C2.78613 27.3409 6.99637 23.1306 12.19 23.1306C17.3836 23.1306 21.5938 27.3409 21.5938 32.5344Z" fill="#80A8BA"/>
</svg>
