<svg width="84" height="28" viewBox="0 0 84 28" fill="none" xmlns="http://www.w3.org/2000/svg">
<path id="Vector 1" d="M21.7353 3.27642C15.8335 5.24368 9.74861 8.10991 4.81363 11.9334C3.89799 12.6428 1.63174 14.0798 1.12591 15.2811C0.590774 16.5521 1.88807 19.1119 2.64285 19.9758C4.49622 22.0971 7.28377 23.2685 9.88752 24.1474C14.2344 25.6145 18.7655 26.1795 23.3046 26.632C30.3716 27.3365 37.3558 27.0547 44.4109 26.3966C50.0498 25.8706 55.9892 26.4883 61.4764 24.9451C66.1874 23.6201 70.6009 21.5976 75.1158 19.7535C76.9223 19.0156 78.7965 18.5642 80.6081 17.8704C81.8652 17.3889 82.956 16.3999 82.622 14.9804C81.0915 8.47585 74.0701 5.51155 68.2242 3.91719C64.4904 2.8989 60.384 2.70411 56.5464 2.28256C51.8026 1.76147 47.045 1.1878 42.2663 1.15794C33.175 1.10112 23.2141 0.289256 14.3599 2.98872C12.119 3.6719 10.5827 4.22492 8.91982 6.02259C7.18303 7.9002 4.31878 10.0178 4.0944 12.8226C3.95331 14.5862 4.4411 15.9297 5.51979 17.3081C7.18678 19.4381 10.7191 20.2612 13.1568 20.9566C15.4695 21.6163 17.8341 22.078 20.2053 22.4604C23.5742 23.0038 27.1546 22.9671 30.5492 23.1797C33.5322 23.3664 36.5925 23.755 39.5855 23.755C40.4887 23.755 41.3162 23.9904 42.2139 23.9904" stroke="#191600" stroke-linecap="round"/>
</svg>
