<svg width="68" height="87" viewBox="0 0 68 87" fill="none" xmlns="http://www.w3.org/2000/svg">
<path d="M58.1435 0.23584C63.463 0.23584 67.7753 4.60226 67.7753 9.98835V76.3056C67.7753 81.6918 63.463 86.0581 58.1435 86.0581C52.824 86.0581 48.5117 81.6918 48.5117 76.3056V9.98835C48.5117 4.60226 52.824 0.23584 58.1435 0.23584Z" fill="#19338C"/>
<path d="M32.0356 27.543C36.8759 27.543 40.7999 31.516 40.7999 36.417V60.0811C40.7999 64.9821 36.8759 68.9551 32.0356 68.9551C27.1953 68.9551 23.2715 64.9821 23.2715 60.0811V36.417C23.2715 31.516 27.1953 27.543 32.0356 27.543Z" fill="#19338C"/>
<path d="M17.6866 24.7138C17.6866 19.8128 13.7627 15.8398 8.92234 15.8398C4.08201 15.8398 0.158203 19.8128 0.158203 24.7138V27.6719C0.158203 32.5729 4.08201 36.5459 8.92234 36.5459C13.7627 36.5459 17.6866 32.5729 17.6866 27.6719V24.7138Z" fill="#19338C"/>
<path d="M32.0356 4.13818C36.8759 4.13818 40.7999 8.11117 40.7999 13.0122V15.9702C40.7999 20.8712 36.8759 24.8442 32.0356 24.8442C27.1953 24.8442 23.2715 20.8712 23.2715 15.9702V13.0122C23.2715 8.11117 27.1953 4.13818 32.0356 4.13818Z" fill="#19338C"/>
</svg>
