<svg width="89" height="53" viewBox="0 0 89 53" fill="none" xmlns="http://www.w3.org/2000/svg">
<path d="M3 14.3524C1.82146 14.3524 0.866064 15.3078 0.866064 16.4864C0.866064 17.6649 1.82146 18.6203 3 18.6203V14.3524ZM49.3724 17.9953C50.2057 17.1619 50.2057 15.8108 49.3724 14.9774L35.7921 1.39715C34.9587 0.563801 33.6076 0.563801 32.7742 1.39715C31.9409 2.23051 31.9409 3.58164 32.7742 4.415L44.8456 16.4864L32.7742 28.5577C31.9409 29.3911 31.9409 30.7422 32.7742 31.5756C33.6076 32.4089 34.9587 32.4089 35.7921 31.5756L49.3724 17.9953ZM3 18.6203H6.73862V14.3524H3V18.6203ZM14.2159 18.6203H21.6931V14.3524H14.2159V18.6203ZM29.1703 18.6203H36.6476V14.3524H29.1703V18.6203ZM44.1248 18.6203H47.8634V14.3524H44.1248V18.6203ZM3 14.3524C1.82146 14.3524 0.866064 15.3078 0.866064 16.4864C0.866064 17.6649 1.82146 18.6203 3 18.6203V14.3524ZM49.3724 17.9953C50.2057 17.1619 50.2057 15.8108 49.3724 14.9774L35.7921 1.39715C34.9587 0.563801 33.6076 0.563801 32.7742 1.39715C31.9409 2.23051 31.9409 3.58164 32.7742 4.415L44.8456 16.4864L32.7742 28.5577C31.9409 29.3911 31.9409 30.7422 32.7742 31.5756C33.6076 32.4089 34.9587 32.4089 35.7921 31.5756L49.3724 17.9953ZM3 18.6203H6.73862V14.3524H3V18.6203ZM14.2159 18.6203H21.6931V14.3524H14.2159V18.6203ZM29.1703 18.6203H36.6476V14.3524H29.1703V18.6203ZM44.1248 18.6203H47.8634V14.3524H44.1248V18.6203Z" fill="#2C2C2C"/>
<path d="M86.2998 38.8927C87.4783 38.8927 88.4337 37.9373 88.4337 36.7588C88.4337 35.5802 87.4783 34.6248 86.2998 34.6248V38.8927ZM39.9274 35.2498C39.0941 36.0832 39.0941 37.4343 39.9274 38.2677L53.5077 51.848C54.3411 52.6813 55.6922 52.6813 56.5256 51.848C57.3589 51.0146 57.3589 49.6635 56.5256 48.8301L44.4542 36.7588L56.5256 24.6874C57.3589 23.854 57.3589 22.5029 56.5256 21.6696C55.6922 20.8362 54.3411 20.8362 53.5077 21.6696L39.9274 35.2498ZM86.2998 34.6248H41.4364V38.8927H86.2998V34.6248Z" fill="#2C2C2C"/>
<circle cx="75.5789" cy="15.4194" r="9.60271" stroke="#2C2C2C" stroke-width="2.13394"/>
<circle cx="13.6951" cy="36.7588" r="10.6697" fill="#2C2C2C"/>
</svg>
